'' Copyright (C) 2022 Alessandro "Sgorblex" Clerici Lorenzini and Edoardo "Miniman" Della Rossa
'
' This work may be distributed and/or modified under the
' conditions of the LaTeX Project Public License, either version 1.3
' of this license or (at your option) any later version.
' The latest version of this license is in
'   http://www.latex-project.org/lppl.txt
' and version 1.3 or later is part of all distributions of LaTeX
' version 2005/12/01 or later.
'
' This work has the LPPL maintenance status `maintained'.
'
' The Current Maintainer of this work is Alessandro Clerici Lorenzini
'
' This work consists of the files listed in work.txt


@startuml
hide empty description
scale 10 height

state SessionCreated: cfr. Session Created Fsm

state "No Session Created" as NoSession {
	state "Login/Idle" as Login
	state RoleCheck <<choice>>
	[*] --> Login
	Login --> RoleCheck 
	RoleCheck --> UserLogged : role == USER
	RoleCheck --> AdminLogged : role == ADMIN
	RoleCheck -l-> Login : Wrong Credential
	AdminLogged --> SessionCreated : Session creating operation
	AdminLogged --> Login : Logout
	UserLogged --> Login : Logout
}

[*] --> NoSession


@enduml
